<?xml version="1.0" standalone="no"?>
<!DOCTYPE svg PUBLIC "-//W3C//DTD SVG 20010904//EN"
 "http://www.w3.org/TR/2001/REC-SVG-20010904/DTD/svg10.dtd">
<svg version="1.0" xmlns="http://www.w3.org/2000/svg"
 width="700.000000pt" height="700.000000pt" viewBox="0 0 700.000000 700.000000"
 preserveAspectRatio="xMidYMid meet">
<metadata>
Created by potrace 1.14, written by Peter Selinger 2001-2017
</metadata>
<g transform="translate(0.000000,700.000000) scale(0.100000,-0.100000)"
fill="#000000" stroke="none">
<path d="M3769 5686 c-61 -16 -104 -48 -136 -104 l-28 -47 0 -1380 c0 -759 3
-1416 7 -1460 43 -453 290 -855 688 -1124 175 -117 391 -200 590 -226 30 -4
64 -9 75 -11 30 -7 295 -6 335 1 19 3 49 7 65 9 314 38 619 197 862 448 88 91
115 124 178 218 105 158 189 348 215 492 6 29 13 64 15 78 26 123 26 373 0
550 -16 110 -65 262 -125 386 -83 172 -166 284 -320 434 -214 209 -434 329
-725 395 -106 25 -141 28 -305 29 -102 1 -214 -3 -250 -7 -293 -36 -614 -193
-828 -404 -18 -18 -35 -33 -37 -33 -2 0 -4 358 -5 795 0 870 2 835 -58 898
-56 59 -136 83 -213 63z m1498 -1750 c331 -28 668 -262 834 -579 83 -160 111
-273 115 -477 3 -175 -8 -252 -57 -394 -108 -314 -401 -594 -709 -678 -88 -24
-109 -28 -165 -35 -76 -9 -234 -9 -305 1 -308 40 -574 207 -761 481 -113 165
-169 345 -174 565 -9 332 108 614 346 834 144 133 340 238 489 262 19 3 38 8
42 10 4 3 40 7 80 10 40 4 74 7 76 8 3 4 110 -1 189 -8z"/>
<path d="M461 4360 c-51 -24 -85 -59 -112 -115 -17 -38 -18 -92 -16 -1400 l2
-1360 25 -45 c86 -152 302 -147 386 9 l24 45 0 780 c1 430 3 793 5 808 2 16 6
46 10 68 4 22 7 43 7 47 2 23 51 152 79 206 90 179 256 345 435 436 311 159
693 138 978 -54 109 -73 237 -200 293 -290 64 -103 124 -252 138 -342 3 -21 8
-50 10 -63 3 -14 5 -371 6 -795 0 -512 4 -784 11 -813 6 -25 26 -58 48 -82
109 -116 290 -88 357 55 l23 50 -4 815 c-2 448 -6 829 -9 845 -3 17 -8 44 -11
60 -13 68 -16 80 -31 134 -136 479 -567 887 -1041 986 -123 26 -168 30 -324
30 -165 0 -219 -6 -345 -35 -208 -49 -422 -161 -587 -308 l-48 -44 -1 94 c-1
116 -3 138 -23 176 -55 106 -179 150 -285 102z"/>
</g>
</svg>
