<?xml version="1.0" encoding="utf-8"?>
<svg id="master-artboard" viewBox="0 0 900 450" version="1.1" xmlns="http://www.w3.org/2000/svg" x="0px" y="0px" style="enable-background:new 0 0 1400 980;" width="900px" height="450px"><defs><style id="ee-google-fonts">@import url(https://fonts.googleapis.com/css?family=Acme:400|Comfortaa:300,400,700);</style></defs><rect id="ee-background" x="0" y="0" width="900" height="450" style="fill: white; fill-opacity: 0; pointer-events: none;"/><g transform="matrix(1.002765417098999, 0, 0, 1.002765417098999, -1.1986134052275474, -1.2077250480652424)"><path d="M 0 0 H 900 V 450 H 0 V 0 Z" fill="#6875f5"/><g transform="translate(456.3528081498134 247.5880196286558)"><path d="M130.6 -130.9C155.1 -106.1 151 -53 137.8 -13.3C124.5 26.5 102 53 77.5 72.5C53 92 26.5 104.5 -0.4 104.9C-27.3 105.3 -54.7 93.7 -87 74.2C-119.3 54.7 -156.7 27.3 -160.7 -4C-164.7 -35.4 -135.4 -70.7 -103 -95.5C-70.7 -120.4 -35.4 -134.7 8.8 -143.5C53 -152.4 106.1 -155.7 130.6 -130.9" fill="#fefefe"/></g></g><path d="M 267.88531494140625 363.0732727050781 C 267.88531494140625 361.56658935546875 268.4219665527344 360.276611328125 269.49530029296875 359.2032775878906 C 270.5619812011719 358.1365966796875 271.8486328125 357.603271484375 273.3553161621094 357.603271484375 C 274.8553161621094 357.603271484375 276.1419677734375 358.1365966796875 277.2153015136719 359.2032775878906 C 278.28863525390625 360.276611328125 278.8253173828125 361.56658935546875 278.8253173828125 363.0732727050781 L 278.8253173828125 367.5132751464844 C 285.6586608886719 360.9066162109375 293.8619689941406 357.603271484375 303.435302734375 357.603271484375 C 313.2286376953125 357.603271484375 321.60198974609375 361.07659912109375 328.5552978515625 368.02325439453125 C 335.5019836425781 374.9765930175781 338.9753112792969 383.3499450683594 338.9753112792969 393.1432800292969 L 338.9753112792969 428.6932678222656 C 338.9753112792969 430.1999206542969 338.4419860839844 431.4866027832031 337.37530517578125 432.55328369140625 C 336.3019714355469 433.6266174316406 335.011962890625 434.16326904296875 333.50531005859375 434.16326904296875 C 332.00531005859375 434.16326904296875 330.7186584472656 433.6266174316406 329.64532470703125 432.55328369140625 C 328.5786437988281 431.4866027832031 328.0453186035156 430.1999206542969 328.0453186035156 428.6932678222656 L 328.0453186035156 393.1432800292969 C 328.0453186035156 386.3565979003906 325.6386413574219 380.5599365234375 320.8253173828125 375.7532653808594 C 316.0186462402344 370.93994140625 310.22198486328125 368.53326416015625 303.435302734375 368.53326416015625 C 296.6419677734375 368.53326416015625 290.84197998046875 370.93994140625 286.0353088378906 375.7532653808594 C 281.2286376953125 380.5599365234375 278.8253173828125 386.3565979003906 278.8253173828125 393.1432800292969 L 278.8253173828125 428.6932678222656 C 278.8253173828125 430.1999206542969 278.28863525390625 431.4866027832031 277.2153015136719 432.55328369140625 C 276.1419677734375 433.6266174316406 274.8553161621094 434.16326904296875 273.3553161621094 434.16326904296875 C 271.8486328125 434.16326904296875 270.5619812011719 433.6266174316406 269.49530029296875 432.55328369140625 C 268.4219665527344 431.4866027832031 267.88531494140625 430.1999206542969 267.88531494140625 428.6932678222656 L 267.88531494140625 363.0732727050781 ZM 388.1930847167969 423.2232666015625 C 395.759765625 423.2232666015625 402.2097473144531 420.5566101074219 407.5430908203125 415.2232666015625 C 412.8697509765625 409.8966064453125 415.5330810546875 403.449951171875 415.5330810546875 395.8832702636719 C 415.5330810546875 388.31658935546875 412.8697509765625 381.8666076660156 407.5430908203125 376.53326416015625 C 402.2097473144531 371.199951171875 395.759765625 368.53326416015625 388.1930847167969 368.53326416015625 C 380.62640380859375 368.53326416015625 374.1764221191406 371.199951171875 368.84307861328125 376.53326416015625 C 363.51641845703125 381.8666076660156 360.85308837890625 388.31658935546875 360.85308837890625 395.8832702636719 C 360.85308837890625 403.449951171875 363.51641845703125 409.8966064453125 368.84307861328125 415.2232666015625 C 374.1764221191406 420.5566101074219 380.62640380859375 423.2232666015625 388.1930847167969 423.2232666015625 M 360.85308837890625 369.083251953125 C 360.93975830078125 368.9966125488281 361.0297546386719 368.9066162109375 361.1230773925781 368.8132629394531 C 368.5964050292969 361.3399353027344 377.6197509765625 357.603271484375 388.1930847167969 357.603271484375 C 398.76641845703125 357.603271484375 407.7897644042969 361.3399353027344 415.2630920410156 368.8132629394531 C 422.7364196777344 376.2865905761719 426.47308349609375 385.3099365234375 426.47308349609375 395.8832702636719 C 426.47308349609375 406.45660400390625 422.7364196777344 415.4799499511719 415.2630920410156 422.9532775878906 C 407.7897644042969 430.4266052246094 398.76641845703125 434.16326904296875 388.1930847167969 434.16326904296875 C 377.6197509765625 434.16326904296875 368.5964050292969 430.4266052246094 361.1230773925781 422.9532775878906 C 353.6497497558594 415.4799499511719 349.9130859375 406.45660400390625 349.9130859375 395.8832702636719 L 349.9130859375 330.1232604980469 C 349.9130859375 328.6166076660156 350.4497375488281 327.32659912109375 351.5230712890625 326.2532653808594 C 352.5897521972656 325.18658447265625 353.87640380859375 324.65325927734375 355.3830871582031 324.65325927734375 C 356.8830871582031 324.65325927734375 358.16973876953125 325.18658447265625 359.2430725097656 326.2532653808594 C 360.31640625 327.32659912109375 360.85308837890625 328.6166076660156 360.85308837890625 330.1232604980469 L 360.85308837890625 369.083251953125 Z" transform="matrix(1.2224936485290527, 0, 0, 1.2224936485290527, 33.96600341796875, -253.2395782470703)" style="fill: rgb(104, 117, 245); white-space: pre; color: rgb(51, 51, 51);"/></svg>